<?xml version="1.0" encoding="UTF-8"?><svg id="Layer_1" xmlns="http://www.w3.org/2000/svg" viewBox="0 0 500 500"><defs><style>.cls-1{fill:#fff;}.cls-2{fill:#e2e2e2;}.cls-3{fill:#c3c7c9;}.cls-4{fill:none;stroke:#c3c7c9;stroke-linecap:round;stroke-linejoin:round;stroke-width:6px;}.cls-5{fill:#24285b;}.cls-6{fill:#ffd44d;}.cls-7{fill:#0099f5;}.cls-8{opacity:.09;}</style></defs><path class="cls-7" d="M128.85,84.41H402.43c6.62,0,12,5.38,12,12V454.74c0,6.62-5.38,12-12,12H135.69c-6.62,0-12-5.38-12-12V89.57c0-2.85,2.31-5.16,5.16-5.16Z"/><path class="cls-2" d="M97.57,57.03h202.95l75.36,71.93V420.62c0,6.63-5.37,12-12,12H97.57c-6.63,0-12-5.37-12-12V69.03c0-6.63,5.37-12,12-12Z"/><path class="cls-3" d="M300.5,56.6l75.81,72.36h-73.22c-1.43,0-2.58-1.16-2.58-2.58V56.6Z"/><path class="cls-5" d="M146.19,78.79c-2.17,0-3.94,1.76-3.94,3.94v26.65c0,6.68-5.44,12.12-12.12,12.12s-11.77-5.28-11.77-11.77V56.26c0-8.34,6.78-15.12,15.12-15.12s15.12,6.78,15.12,15.12v.77h7.88v-.77c0-12.68-10.32-23-23-23s-23,10.32-23,23v53.47c0,10.83,8.81,19.64,19.64,19.64s20-8.97,20-20v-26.65c0-2.17-1.76-3.94-3.94-3.94Z"/><g><g><circle class="cls-6" cx="230.73" cy="210.68" r="67.41"/><path class="cls-8" d="M295.9,193.5c.59,3.39,.92,6.87,.92,10.43,0,33.24-26.95,60.19-60.19,60.19s-60.19-26.95-60.19-60.19,26.95-60.19,60.19-60.19c.79,0,1.58,.03,2.36,.06-19.89-2.44-40.66,3.95-55.93,19.22-26.32,26.32-26.32,69,0,95.33,26.32,26.32,69,26.32,95.33,0,17.57-17.57,23.4-42.42,17.51-64.84Z"/></g><path class="cls-1" d="M207.76,206.68c-.13-1.56-.29-2.94-.34-4.33-.01-.26,.31-.64,.58-.78,2.44-1.22,4.84-2.52,7.35-3.57,5.17-2.17,10.52-3.81,16.06-4.72,2.99-.49,6-.85,9-.04,3.28,.88,4.78,3.01,4.1,6.32-.62,3.05-1.56,6.04-2.36,9.06-2.57,9.78-5.17,19.55-7.69,29.34-.8,3.13,.71,5.38,3.88,6.04,1.01,.21,2.07,.31,3.1,.28,4.12-.14,8.02-1.17,11.67-3.13,.14-.07,.29-.12,.61-.24,.12,1.5,.26,2.9,.32,4.31,0,.23-.32,.56-.57,.69-1.86,.99-3.7,2.05-5.63,2.88-5.9,2.54-11.98,4.57-18.36,5.48-2.27,.32-4.59,.22-6.89,.25-.57,0-1.16-.17-1.72-.33-3.04-.87-4.48-2.86-3.95-5.98,.42-2.52,1.18-4.99,1.84-7.47,2.63-9.86,5.28-19.72,7.91-29.59,.21-.78,.41-1.58,.47-2.39,.23-2.91-1.12-4.67-4-5.29-2.27-.49-4.54-.33-6.78,.1-2.95,.57-5.79,1.46-8.58,3.12Zm20.69-28.84c.01,5.96,4.9,10.86,10.87,10.88,6.03,.03,10.98-4.85,11.01-10.84,.03-6.08-4.86-11.02-10.92-11.02-6.08,0-10.97,4.9-10.96,10.99Z"/></g><g><line class="cls-4" x1="134.52" y1="313.86" x2="326.93" y2="313.86"/><line class="cls-4" x1="134.52" y1="400.21" x2="313.26" y2="400.21"/><line class="cls-4" x1="134.52" y1="357.04" x2="247.03" y2="357.04"/></g></svg>